<svg version="1.0" xmlns="http://www.w3.org/2000/svg" viewBox="0 0 841.9 595.3">
<g transform="translate(0.000000,656.000000) scale(0.100000,-0.100000)"
fill="#000000" stroke="none">
<path d="M594 5715 c-14 -32 -11 -208 4 -213 6 -2 12 -15 12 -28 0 -13 4 -24
8 -24 4 0 13 -14 20 -32 30 -80 24 6 -13 202 -8 41 -16 84 -18 95 l-4 20 -9
-20z"/>
<path d="M670 5360 c0 -5 5 -10 11 -10 5 0 7 5 4 10 -3 6 -8 10 -11 10 -2 0
-4 -4 -4 -10z"/>
<path d="M932 5162 c14 -12 29 -22 33 -22 3 0 13 -7 21 -15 9 -8 21 -15 27
-15 7 0 -3 14 -22 30 -18 17 -37 30 -42 30 -4 0 -16 3 -26 7 -11 4 -8 -2 9
-15z"/>
<path d="M1030 5173 c0 -4 14 -20 32 -36 18 -15 27 -26 19 -25 -26 6 -22 -22
5 -32 21 -8 29 -8 36 2 7 12 12 4 9 -14 -1 -7 11 -11 62 -22 15 -4 25 -11 22
-16 -3 -6 5 -15 19 -22 14 -6 26 -15 26 -20 0 -11 -26 -3 -100 29 l-55 24 28
-29 c15 -15 25 -31 22 -34 -3 -3 23 -17 57 -32 35 -15 74 -38 88 -50 43 -39
195 -92 385 -135 64 -14 353 -43 365 -36 11 7 146 -24 198 -46 l43 -19 -20 26
c-22 28 -27 54 -11 54 6 0 10 -4 10 -10 0 -5 5 -10 11 -10 14 0 43 -29 45 -46
2 -15 34 -50 34 -38 0 4 -8 16 -17 27 -13 15 -14 18 -3 12 52 -30 81 -61 93
-100 10 -36 39 -69 175 -200 90 -86 166 -154 170 -150 4 4 -5 17 -20 30 -15
13 -25 25 -22 28 3 2 -22 31 -56 62 -56 54 -71 75 -52 75 18 -1 162 -150 162
-168 0 -26 25 -48 36 -31 5 8 3 9 -6 4 -9 -5 -11 -4 -6 3 10 17 12 16 61 -29
29 -27 45 -50 45 -65 0 -32 -10 -30 -45 6 -16 17 -35 30 -42 30 -17 0 -16 -5
2 -39 15 -29 33 -41 64 -41 9 0 30 -14 47 -32 22 -24 25 -29 10 -24 -19 6 -19
6 -3 -12 9 -10 17 -22 17 -27 0 -8 -64 -2 -129 11 -30 6 -33 5 -28 -10 5 -13
3 -16 -11 -12 -39 11 -96 18 -89 10 12 -12 36 -16 96 -16 41 0 50 -3 37 -10
-10 -6 -77 -9 -150 -9 -151 2 -162 -5 -89 -55 23 -16 43 -31 43 -34 0 -3 -23
-23 -51 -45 -28 -21 -61 -53 -73 -70 -11 -18 -55 -81 -96 -141 -41 -60 -79
-115 -84 -124 -5 -8 41 33 101 93 61 59 112 107 115 107 7 0 -65 -144 -74
-148 -4 -2 -4 -10 -1 -19 4 -11 2 -14 -5 -9 -8 5 -10 2 -6 -8 3 -9 1 -16 -5
-16 -6 0 -11 -15 -11 -33 0 -18 -4 -37 -9 -43 -14 -14 -31 -144 -31 -236 0
-81 12 -118 44 -140 12 -8 32 29 46 85 39 153 111 266 271 424 126 123 179
163 305 226 l70 35 39 -32 c39 -33 39 -33 22 -60 -11 -16 -15 -35 -11 -51 3
-14 8 -25 10 -25 10 0 54 24 54 30 0 4 13 24 30 45 16 21 35 55 40 76 7 24 17
39 26 39 8 0 12 5 9 11 -12 18 27 40 61 34 18 -3 48 2 70 11 39 16 80 16 208
-2 36 -5 47 -4 42 4 -5 8 3 12 25 12 25 0 41 -9 65 -35 25 -27 28 -34 13 -30
-12 4 -37 -4 -66 -21 -38 -22 -58 -27 -113 -26 -78 0 -89 -5 -96 -42 -5 -29 3
-29 37 1 12 10 23 11 44 3 26 -10 27 -12 11 -29 -24 -27 -19 -33 14 -16 27 14
30 14 30 0 0 -8 12 -17 28 -21 46 -10 93 -38 87 -52 -2 -7 -1 -11 4 -8 4 3 8
-8 9 -23 1 -51 23 -115 48 -140 13 -13 24 -29 24 -35 0 -6 5 -4 10 4 9 13 12
13 20 -2 6 -10 17 -15 26 -11 9 3 20 0 25 -8 6 -10 9 -10 9 -1 0 18 17 15 24
-4 4 -10 -5 -36 -19 -60 -26 -44 -25 -70 1 -60 18 7 18 1 -2 -19 -17 -16 -16
-20 15 -71 l19 -31 -29 -27 c-39 -37 -37 -50 5 -25 45 26 47 21 43 -160 l-3
-148 -36 -43 c-21 -23 -35 -47 -31 -53 3 -5 10 -3 15 7 5 9 14 16 19 16 14 0
1 -39 -22 -68 -10 -13 -16 -29 -14 -35 6 -17 -14 -39 -58 -62 -51 -27 -65 -44
-46 -56 12 -8 11 -11 -5 -20 -14 -9 -15 -13 -6 -19 21 -13 -138 -170 -172
-170 -32 0 -36 6 -47 62 l-9 43 -1 -40 c-1 -44 21 -85 45 -85 9 0 -8 -19 -36
-41 -41 -32 -54 -38 -61 -28 -12 20 -11 66 2 91 6 11 12 33 13 47 1 14 6 37
11 51 7 22 6 23 -9 11 -10 -9 -16 -10 -16 -2 0 29 -30 5 -58 -46 -17 -32 -48
-71 -69 -88 l-38 -30 18 27 c21 34 22 44 1 27 -9 -8 -24 -14 -33 -14 -10 0
-17 -11 -19 -30 -2 -17 -20 -47 -43 -72 -39 -42 -48 -63 -29 -63 6 0 10 4 10
9 0 9 20 17 72 31 19 5 25 4 21 -5 -2 -7 2 -19 10 -26 8 -7 12 -22 9 -31 -4
-16 -1 -17 19 -9 64 25 145 67 172 90 9 7 20 10 25 7 5 -3 36 22 71 54 68 66
179 124 263 140 28 6 100 10 159 10 88 0 109 -3 109 -14 0 -8 -4 -17 -10 -21
-5 -3 -7 -12 -4 -20 4 -11 13 -5 30 20 47 70 104 143 154 201 29 32 57 69 63
81 5 13 18 25 29 28 10 4 18 13 18 20 0 16 40 46 51 39 4 -2 10 0 14 6 3 5 15
10 26 10 22 0 23 4 8 32 -8 15 -8 19 0 14 15 -10 13 5 -4 28 -8 10 -19 44 -26
75 -23 112 -120 331 -185 417 -44 58 -151 164 -158 157 -3 -3 -11 -1 -18 4
-17 13 -96 32 -117 28 -9 -2 -28 -6 -42 -10 -25 -6 -27 -4 -33 39 -4 25 -11
46 -17 46 -5 0 -9 12 -10 28 -1 58 -33 111 -97 165 -30 24 -31 27 -12 27 12 0
34 -8 48 -18 15 -10 34 -22 42 -27 12 -6 13 -5 3 6 -18 18 -16 32 2 25 27 -10
16 3 -25 30 -34 22 -40 32 -45 73 -9 71 -28 141 -37 141 -7 0 -2 -66 8 -97 2
-7 1 -20 -2 -28 -5 -11 -13 -8 -36 16 -17 16 -33 27 -36 24 -3 -3 10 -21 28
-40 25 -26 30 -35 17 -35 -9 0 -26 14 -39 30 -13 18 -28 28 -37 25 -17 -5 -40
41 -60 120 -6 22 -23 60 -38 83 l-28 43 -5 -28 c-4 -20 5 -50 32 -104 21 -42
38 -79 38 -82 0 -3 -10 -7 -22 -9 -13 -2 -22 -9 -20 -17 2 -9 -3 -11 -13 -7
-9 3 -41 6 -71 6 -62 0 -75 14 -54 58 7 15 12 38 11 52 -1 18 1 21 7 12 5 -8
22 -15 38 -17 16 -2 39 -6 52 -10 27 -9 28 5 2 35 -11 12 -17 27 -13 33 3 5 2
7 -4 4 -13 -8 -55 22 -48 34 4 5 0 9 -8 9 -22 0 -41 27 -25 33 8 4 5 8 -10 13
-16 5 -24 17 -28 44 -4 25 -18 49 -38 68 -41 40 -102 73 -121 66 -8 -4 -15 -1
-15 5 0 6 5 11 11 11 7 0 0 9 -14 20 -14 11 -30 20 -36 20 -6 0 -11 4 -11 8 0
10 -165 122 -180 122 -5 0 -10 4 -10 8 0 5 -18 17 -40 27 -22 10 -45 24 -51
32 -6 7 -20 13 -29 13 -10 0 -20 4 -22 8 -6 15 -250 133 -405 195 -171 69
-203 78 -366 103 -59 8 -122 20 -139 25 -64 18 -52 7 157 -141 50 -35 129 -96
176 -135 47 -38 97 -79 111 -90 24 -19 53 -63 46 -70 -2 -1 -59 46 -128 106
-69 60 -164 136 -212 169 -48 33 -90 65 -93 70 -3 6 -16 15 -28 21 -14 8 -7
-5 22 -39 23 -29 46 -52 50 -52 4 0 15 -14 26 -32 l19 -32 -50 39 c-27 22 -88
76 -135 121 l-87 81 -193 12 c-198 11 -384 34 -403 50 -6 4 -38 18 -71 30 -95
35 -208 84 -237 104 -16 10 -28 15 -28 10z m382 -239 c32 -9 58 -21 58 -26 0
-12 -41 -3 -95 22 -51 23 -38 25 37 4z m1257 -380 c53 -24 54 -25 36 -44 -10
-11 -21 -20 -26 -20 -13 0 -109 80 -109 91 0 12 24 6 99 -27z m-121 -58 c49
-47 59 -79 15 -51 -16 9 -35 25 -43 34 -8 9 -22 20 -31 23 -9 4 -19 20 -21 37
-4 30 -4 31 16 14 12 -10 40 -35 64 -57z m119 -27 c17 -14 38 -39 46 -56 9
-16 23 -36 32 -43 9 -7 21 -23 27 -34 6 -12 -27 15 -74 59 -73 69 -108 112
-108 131 0 6 23 -12 77 -57z m693 -79 c0 -5 -7 -10 -15 -10 -8 0 -15 5 -15 10
0 6 7 10 15 10 8 0 15 -4 15 -10z m-515 -76 c39 -36 61 -61 50 -56 -11 6 -29
20 -39 31 -19 21 -42 29 -31 11 3 -5 1 -10 -5 -10 -7 0 -10 6 -7 13 2 6 -9 27
-26 45 -54 56 -15 34 58 -34z m173 -131 c29 -22 65 -81 56 -92 -5 -6 -144 131
-144 142 0 10 32 -9 88 -50z m92 -53 c27 0 109 -89 116 -126 3 -19 4 -38 1
-41 -9 -8 -128 97 -137 121 -4 12 -11 32 -15 46 -6 20 -5 23 6 13 7 -7 20 -13
29 -13z m-156 -22 c-3 -4 1 -5 9 -2 8 3 19 -2 26 -10 7 -8 19 -12 27 -9 31 12
63 -18 73 -69 15 -69 14 -74 -11 -42 -13 16 -22 32 -20 37 1 5 -2 6 -8 2 -17
-11 -105 73 -107 103 -2 20 0 23 7 12 5 -8 6 -18 4 -22z m421 -195 c10 -14 21
-21 28 -16 7 4 7 0 -2 -10 -20 -25 -49 -21 -102 16 -30 20 -49 41 -53 58 -3
15 -8 39 -12 54 -7 26 -3 25 60 -25 36 -30 73 -64 81 -77z m-147 -37 c-2 -30
2 -42 18 -52 19 -13 20 -12 16 24 l-4 37 24 -22 c13 -13 30 -23 36 -23 7 0 12
-4 12 -10 0 -5 -4 -10 -10 -10 -5 0 -12 -11 -16 -24 -13 -55 -47 -41 -114 49
-21 28 -47 60 -58 73 -21 24 -20 52 2 52 8 0 8 2 0 8 -6 4 -14 18 -17 31 -5
19 7 12 54 -35 55 -54 60 -62 57 -98z m529 48 c-3 -3 -12 -4 -19 -1 -8 3 -5 6
6 6 11 1 17 -2 13 -5z m-457 -178 c0 -3 -4 -8 -10 -11 -5 -3 -10 -1 -10 4 0 6
5 11 10 11 6 0 10 -2 10 -4z m577 -142 c-3 -3 -12 -4 -19 -1 -8 3 -5 6 6 6 11
1 17 -2 13 -5z m298 -242 c-3 -3 -11 0 -18 7 -9 10 -8 11 6 5 10 -3 15 -9 12
-12z m193 -212 c7 -12 10 -25 6 -31 -5 -8 -34 32 -34 47 0 11 17 1 28 -16z
m42 -69 c0 -11 4 -23 10 -26 18 -11 60 -111 60 -141 0 -16 -16 -61 -37 -99
-27 -53 -31 -65 -16 -52 16 14 23 15 29 6 4 -8 3 -10 -4 -5 -8 5 -12 -2 -12
-21 0 -22 2 -25 10 -13 5 8 10 10 10 5 0 -6 -6 -17 -12 -24 -10 -11 -10 -13 0
-7 17 10 16 5 -13 -47 -30 -52 -38 -60 -84 -75 -30 -11 -32 -10 -27 6 5 15 4
15 -8 -1 -16 -20 -106 -36 -208 -37 l-56 0 43 83 c24 45 57 107 74 137 17 30
31 59 31 64 0 5 -14 6 -30 2 -23 -4 -29 -3 -23 7 4 6 8 14 9 17 6 32 59 122
76 131 13 7 23 11 23 10 0 -1 12 2 27 8 20 7 27 17 25 32 -1 14 6 24 21 30
l23 9 -20 -38 c-10 -20 -22 -47 -24 -60 -8 -35 13 -13 53 57 36 63 50 75 50
42z m-258 -308 c-30 -54 -78 -126 -69 -103 50 125 56 135 94 149 1 1 -10 -20
-25 -46z m-82 -137 c0 -2 -8 -10 -17 -17 -16 -13 -17 -12 -4 4 13 16 21 21 21
13z m320 -61 c0 -16 -35 -72 -56 -90 -12 -11 -24 -31 -26 -45 -2 -17 -9 -25
-23 -26 -34 -1 -35 5 -5 74 21 50 35 70 57 79 30 13 53 16 53 8z m-123 -90
l-23 -59 -129 -1 c-103 -1 -143 -6 -193 -22 -72 -24 -70 -13 7 39 25 17 57 43
71 58 24 24 35 27 125 33 55 4 114 11 130 15 17 5 31 6 33 3 1 -4 -8 -33 -21
-66z m-787 -260 c-7 -9 -15 -13 -17 -11 -7 7 7 26 19 26 6 0 6 -6 -2 -15z m57
-37 c-3 -7 -5 -2 -5 12 0 14 2 19 5 13 2 -7 2 -19 0 -25z"/>
<path d="M4329 2903 c-13 -15 -12 -15 9 -4 23 12 28 21 13 21 -5 0 -15 -7 -22
-17z"/>
<path d="M2075 4880 c10 -11 20 -20 23 -20 3 0 -3 9 -13 20 -10 11 -20 20 -23
20 -3 0 3 -9 13 -20z"/>
<path d="M2385 4610 c-3 -5 1 -10 10 -10 9 0 13 5 10 10 -3 6 -8 10 -10 10 -2
0 -7 -4 -10 -10z"/>
<path d="M3610 4185 c0 -2 10 -10 23 -16 20 -11 21 -11 8 4 -13 16 -31 23 -31
12z"/>
<path d="M3640 4120 c0 -5 5 -10 11 -10 5 0 7 5 4 10 -3 6 -8 10 -11 10 -2 0
-4 -4 -4 -10z"/>
<path d="M2610 4062 c0 -4 16 -6 35 -4 19 2 35 6 35 8 0 2 -16 4 -35 4 -19 0
-35 -4 -35 -8z"/>
<path d="M3855 4030 c3 -5 8 -10 11 -10 2 0 4 5 4 10 0 6 -5 10 -11 10 -5 0
-7 -4 -4 -10z"/>
<path d="M4610 3927 c0 -19 16 -31 24 -18 3 5 -1 14 -9 21 -12 10 -15 10 -15
-3z"/>
<path d="M4632 3888 c-13 -16 -6 -52 8 -43 5 3 6 -3 4 -12 -5 -20 31 -72 41
-61 7 7 -15 79 -26 88 -4 3 -8 14 -10 24 -4 17 -5 17 -17 4z"/>
<path d="M4585 3866 c5 -23 3 -27 -10 -22 -10 4 -14 2 -9 -6 4 -6 0 -16 -8
-22 -21 -16 -27 -60 -18 -135 8 -58 23 -210 34 -326 4 -44 63 -148 78 -139 6
4 5 10 -2 14 -8 5 -10 15 -5 26 5 11 7 24 6 29 -7 27 -12 63 -11 88 0 15 -4
27 -10 27 -5 0 -10 15 -10 34 0 19 -5 38 -11 42 -6 3 -9 19 -6 33 3 15 1 46
-4 70 -5 23 -11 85 -12 136 -3 79 -1 93 10 83 10 -8 17 -8 25 0 8 8 7 13 -5
18 -9 3 -17 16 -17 28 0 11 -5 28 -11 36 -8 11 -9 8 -4 -14z m-18 -128 c-3 -8
-6 -5 -6 6 -1 11 2 17 5 13 3 -3 4 -12 1 -19z"/>
<path d="M3560 3829 c-8 -5 -11 -9 -6 -9 6 0 -3 -14 -20 -31 -20 -22 -23 -29
-9 -21 29 15 68 59 58 65 -5 3 -15 2 -23 -4z"/>
<path d="M3460 3805 c-7 -9 -10 -18 -7 -21 3 -3 10 4 17 15 13 25 8 27 -10 6z"/>
<path d="M3401 3764 c-25 -42 -26 -45 -4 -37 10 4 14 2 10 -4 -9 -14 54 -15
70 -1 20 16 16 30 -6 19 -14 -8 -23 -6 -36 9 -10 11 -15 26 -12 35 11 26 0 16
-22 -21z"/>
<path d="M4106 3601 c-4 -7 -5 -15 -2 -18 9 -9 19 4 14 18 -4 11 -6 11 -12 0z"/>
<path d="M4880 3463 c0 -18 -4 -33 -10 -33 -5 0 -10 4 -10 9 0 4 -10 8 -22 7
-23 -1 -23 -4 -26 -146 -4 -191 5 -293 24 -286 10 4 20 -5 29 -27 8 -17 14
-26 15 -18 0 8 3 11 6 8 4 -4 1 -13 -5 -21 -11 -13 -8 -16 16 -22 15 -3 37 -8
48 -11 15 -3 17 -2 6 5 -11 8 -9 11 10 17 l23 8 -23 18 c-15 13 -18 19 -9 19
22 0 35 40 28 82 -6 31 -2 41 18 64 25 26 25 27 14 113 -17 124 -22 144 -36
161 -8 8 -17 25 -20 37 -8 24 -32 37 -42 22 -3 -6 -11 -3 -20 8 -12 16 -13 15
-14 -14z"/>
<path d="M3755 3330 c-3 -5 -1 -10 6 -10 6 0 9 -8 6 -19 -3 -12 1 -22 9 -25 8
-3 14 -1 14 5 0 7 10 9 23 6 12 -3 31 1 41 8 16 12 17 17 6 30 -14 17 -95 21
-105 5z"/>
<path d="M3332 3238 c-19 -19 -14 -30 9 -18 15 8 24 8 33 0 8 -6 37 -9 72 -6
45 4 51 3 24 -3 -31 -7 -28 -8 22 -7 31 0 54 4 51 9 -2 4 -13 7 -23 7 -10 0
-20 4 -22 8 -1 5 -20 12 -40 15 -29 4 -38 2 -38 -9 0 -19 -36 -18 -44 1 -7 18
-28 19 -44 3z"/>
<path d="M3565 3220 c3 -5 11 -10 16 -10 6 0 7 5 4 10 -3 6 -11 10 -16 10 -6
0 -7 -4 -4 -10z"/>
<path d="M2990 3200 c0 -5 5 -10 10 -10 6 0 10 5 10 10 0 6 -4 10 -10 10 -5 0
-10 -4 -10 -10z"/>
<path d="M2085 3119 c-4 -6 -5 -12 -2 -15 2 -3 7 2 10 11 7 17 1 20 -8 4z"/>
<path d="M4985 3110 c-3 -5 -1 -10 4 -10 6 0 11 5 11 10 0 6 -2 10 -4 10 -3 0
-8 -4 -11 -10z"/>
<path d="M3605 2891 c24 -35 26 -49 28 -150 1 -105 8 -127 31 -103 4 4 13 7
19 7 19 0 30 112 16 162 -12 45 -65 116 -79 108 -5 -3 -11 -1 -15 5 -3 5 -10
10 -16 10 -5 0 2 -18 16 -39z"/>
<path d="M4753 2843 c-10 -3 -10 -10 -2 -25 9 -17 8 -19 -9 -14 -22 7 -35 -4
-24 -21 4 -6 21 -8 38 -6 26 4 31 9 27 26 -5 20 -4 20 8 6 16 -20 121 -31 157
-18 14 6 21 5 17 0 -6 -11 33 -41 53 -41 14 0 29 -11 73 -54 20 -20 26 -32 19
-41 -7 -8 -1 -28 20 -66 23 -41 28 -62 24 -87 -4 -19 -1 -38 6 -47 16 -19 17
-91 3 -170 -6 -33 -17 -114 -23 -180 -9 -98 -16 -127 -36 -157 -13 -21 -24
-42 -24 -47 0 -5 -14 -19 -30 -31 -17 -12 -27 -26 -24 -32 5 -7 0 -9 -14 -6
-18 5 -22 2 -22 -17 0 -13 -4 -27 -10 -30 -5 -3 -10 3 -10 15 0 12 -4 18 -10
15 -5 -3 -10 -23 -10 -43 0 -28 3 -33 10 -22 8 13 10 12 10 -3 0 -19 -67 -87
-87 -87 -6 0 -14 -8 -17 -17 -8 -26 -53 -26 -60 0 -5 20 -6 20 -24 -4 -24 -30
-32 -67 -22 -99 7 -24 8 -23 25 18 14 33 22 41 36 37 11 -4 32 3 51 18 18 14
44 30 58 37 23 12 24 12 10 -4 -8 -10 -16 -30 -18 -45 -2 -14 -10 -30 -18 -34
-10 -6 -11 -13 -4 -26 5 -10 6 -22 2 -26 -4 -5 2 -5 13 -2 12 4 4 -7 -20 -28
-23 -21 -55 -38 -77 -41 -21 -4 -35 -10 -33 -14 9 -15 135 25 135 42 0 6 7 5
15 -2 8 -7 15 -17 15 -22 0 -6 -7 -5 -15 2 -13 11 -15 4 -15 -52 0 -37 -6 -72
-14 -83 -7 -11 -17 -31 -21 -44 -4 -14 -15 -32 -24 -42 -26 -28 -153 -111
-191 -125 -34 -13 -34 -13 -7 -14 17 0 52 18 93 46 36 25 68 43 71 40 11 -11
-82 -117 -165 -189 -24 -20 -31 -33 -27 -47 4 -13 -2 -28 -19 -45 -14 -14 -26
-31 -26 -37 0 -6 -11 -26 -25 -44 -14 -18 -25 -40 -25 -49 0 -39 -87 -167
-109 -161 -9 3 -34 8 -56 12 -22 4 -43 11 -46 16 -4 6 -30 2 -65 -10 -74 -25
-143 -41 -142 -33 2 20 -4 22 -21 7 -18 -16 -22 -16 -72 0 -30 10 -83 40 -118
68 -49 39 -72 50 -101 50 -24 1 -49 11 -74 29 -48 37 -176 87 -231 91 -5 1
-21 7 -35 15 -17 10 -25 11 -28 2 -2 -6 -12 -11 -23 -11 -11 0 -31 -7 -44 -16
-19 -12 -28 -14 -39 -5 -16 14 -28 1 -44 -46 -9 -28 -9 -31 6 -26 9 3 22 10
28 15 24 18 100 21 133 4 38 -20 72 -52 63 -60 -3 -4 3 -13 14 -20 12 -9 21
-11 25 -4 12 19 92 -78 132 -159 36 -76 49 -89 80 -84 5 1 33 -3 62 -8 34 -6
65 -7 86 -1 26 8 42 6 74 -10 22 -10 54 -22 70 -25 19 -4 8 4 -27 21 -32 15
-58 30 -58 34 0 3 25 28 55 54 48 41 61 47 93 45 21 -2 42 0 47 3 15 9 141
-10 164 -24 25 -15 39 -53 48 -125 l6 -53 -39 -1 -39 -1 38 -10 37 -10 -6 -52
c-10 -85 -24 -163 -39 -212 -8 -26 -12 -51 -9 -56 3 -4 25 -8 49 -8 55 0 60 8
75 120 18 125 -1 405 -29 433 -4 4 19 34 51 65 33 31 69 75 80 97 11 22 36 64
56 93 32 48 39 52 64 47 32 -7 36 2 11 21 -17 12 -17 15 -2 41 11 21 22 28 42
26 16 -1 27 3 27 11 0 15 30 44 63 61 12 6 21 17 20 23 -2 6 3 9 10 6 17 -6
92 72 77 81 -13 8 -41 -25 -33 -40 4 -5 2 -7 -2 -2 -5 4 -17 -1 -29 -10 -20
-18 -20 -18 1 12 11 17 26 41 33 55 12 22 12 24 -2 12 -10 -7 -19 -9 -22 -4
-3 5 7 15 23 22 26 10 57 54 53 72 -1 5 4 7 10 5 7 -1 14 8 16 21 2 12 8 20
13 17 5 -4 9 -2 9 3 0 11 103 147 139 184 15 15 42 64 60 109 18 44 45 95 60
112 15 18 36 52 46 77 10 25 31 59 46 77 15 18 40 54 56 80 25 43 28 57 28
134 -1 71 -5 92 -24 125 -18 30 -25 62 -32 141 -9 117 -53 261 -101 331 -34
50 -122 122 -148 122 -10 0 -21 6 -23 13 -3 7 -6 5 -6 -5 -1 -22 -10 -22 -35
-3 -11 8 -28 15 -37 15 -10 0 -24 6 -31 13 -32 30 -139 49 -153 27 -4 -7 -12
-7 -25 0 -20 10 -46 12 -67 3z m172 -13 c3 -5 2 -10 -4 -10 -5 0 -13 5 -16 10
-3 6 -2 10 4 10 5 0 13 -4 16 -10z m226 -77 c13 -17 13 -17 -6 -3 -11 8 -22
16 -24 17 -2 2 0 3 6 3 6 0 17 -8 24 -17z m-286 -1638 c-11 -8 -25 -19 -32
-25 -17 -14 -24 2 -7 18 8 7 14 10 14 7 0 -3 8 -1 18 4 25 15 30 13 7 -4z
m-55 -43 c0 -4 -9 -13 -20 -20 -19 -12 -20 -11 -8 8 13 20 28 27 28 12z m-936
-494 c-4 -7 -2 -8 4 -4 6 3 26 -3 44 -14 18 -11 41 -20 51 -20 9 0 17 -4 17
-10 0 -15 16 -12 34 5 17 18 26 19 26 5 0 -6 -34 -27 -75 -46 -63 -30 -81 -35
-115 -29 -23 4 -44 14 -47 22 -8 20 24 86 37 78 6 -4 10 -3 9 2 -3 20 2 34 11
28 6 -4 7 -11 4 -17z m120 16 c17 -6 22 -24 8 -24 -5 0 -17 7 -28 15 -19 15
-8 20 20 9z"/>
<path d="M4697 2823 c-4 -3 -7 -11 -7 -17 0 -6 5 -5 12 2 6 6 9 14 7 17 -3 3
-9 2 -12 -2z"/>
<path d="M3848 2603 c7 -3 16 -2 19 1 4 3 -2 6 -13 5 -11 0 -14 -3 -6 -6z"/>
<path d="M3145 2466 c-118 -40 -133 -48 -175 -93 l-45 -48 30 -3 c17 -2 34 -8
40 -13 5 -6 25 7 51 33 23 24 51 51 61 61 22 19 63 23 80 6 9 -9 18 -8 35 3
35 23 131 45 135 31 2 -6 13 -9 23 -6 11 3 20 1 20 -4 0 -5 11 -15 25 -21 14
-6 34 -26 45 -44 13 -22 20 -27 20 -15 0 9 7 17 15 17 38 0 -46 95 -94 107
-14 3 -29 11 -32 16 -4 5 -29 12 -55 14 -39 3 -76 -5 -179 -41z"/>
<path d="M3962 2349 c-51 -10 -140 -53 -179 -87 -21 -18 -23 -22 -8 -16 11 3
47 13 81 22 56 14 65 14 119 -3 94 -30 130 -70 144 -159 5 -32 11 -41 33 -47
26 -7 27 -6 59 92 47 146 35 162 -144 186 -20 3 -40 9 -43 14 -3 5 -8 9 -12 8
-4 -1 -26 -5 -50 -10z"/>
<path d="M2964 2295 c-18 -14 -18 -14 4 -8 12 3 22 9 22 14 0 12 -3 11 -26 -6z"/>
<path d="M3255 2204 c-49 -18 -83 -33 -74 -33 26 -1 142 37 164 53 28 22 13
18 -90 -20z"/>
<path d="M4262 2190 c0 -19 2 -27 5 -17 2 9 2 25 0 35 -3 9 -5 1 -5 -18z"/>
<path d="M4170 1991 c-5 -11 -7 -39 -4 -63 4 -29 1 -56 -10 -82 -19 -46 -20
-51 -3 -34 24 25 44 63 50 93 3 17 8 41 12 55 4 16 4 21 -3 12 -7 -10 -11 -10
-21 2 -7 8 -10 20 -6 26 3 5 4 10 1 10 -3 0 -10 -9 -16 -19z"/>
<path d="M3154 1978 l-19 -23 23 19 c12 11 22 21 22 23 0 8 -8 2 -26 -19z"/>
<path d="M3050 1913 c-49 -29 -65 -43 -46 -38 29 6 110 56 121 75 9 14 8 14
-75 -37z"/>
<path d="M4442 1906 c12 -25 24 -44 26 -42 5 6 -28 75 -39 82 -5 3 1 -15 13
-40z"/>
<path d="M3370 1790 c0 -11 5 -20 10 -20 6 0 10 9 10 20 0 11 -4 20 -10 20 -5
0 -10 -9 -10 -20z"/>
<path d="M4171 1784 c0 -11 3 -14 6 -6 3 7 2 16 -1 19 -3 4 -6 -2 -5 -13z"/>
<path d="M3998 1769 c-15 -4 -39 -19 -55 -34 -35 -33 -129 -79 -143 -70 -12 8
-80 -22 -80 -34 0 -7 95 -37 140 -44 8 -1 26 -9 40 -18 14 -9 42 -26 63 -37
l38 -22 12 28 c18 41 67 107 80 107 13 0 37 42 37 67 0 33 -15 26 -50 -23 -19
-27 -39 -49 -43 -49 -5 0 -6 4 -3 9 3 4 8 23 10 42 3 19 8 45 12 59 6 25 6 25
-10 5 -10 -11 -15 -15 -12 -10 9 20 -8 32 -36 24z"/>
<path d="M4181 1744 c0 -11 3 -14 6 -6 3 7 2 16 -1 19 -3 4 -6 -2 -5 -13z"/>
<path d="M2996 1726 c6 -15 -13 -22 -96 -31 -71 -9 -115 -22 -131 -41 -11 -14
-8 -14 27 0 21 8 77 20 124 26 88 12 142 31 108 38 -10 2 -18 8 -18 13 0 5 -4
9 -10 9 -5 0 -7 -6 -4 -14z"/>
<path d="M3040 1622 c-16 -26 -30 -61 -30 -79 0 -24 -8 -37 -31 -53 -16 -12
-28 -24 -25 -27 7 -8 47 18 111 70 l59 50 85 -7 c47 -4 90 -11 95 -16 13 -13
39 -13 54 2 19 19 -17 37 -78 38 -88 0 -131 10 -128 29 3 19 -9 41 -22 41 -6
0 -9 -10 -7 -21 1 -12 -4 -24 -10 -26 -8 -3 -13 4 -13 15 0 41 -29 33 -60 -16z
m25 -72 c-3 -5 -11 -10 -16 -10 -6 0 -7 5 -4 10 3 6 11 10 16 10 6 0 7 -4 4
-10z"/>
<path d="M4220 1625 c0 -5 5 -17 10 -25 5 -8 10 -10 10 -5 0 6 -5 17 -10 25
-5 8 -10 11 -10 5z"/>
<path d="M3435 1600 c-3 -5 -16 -10 -28 -10 -20 -1 -21 -1 -4 -11 25 -15 68
-3 61 16 -7 17 -20 19 -29 5z"/>
<path d="M4320 1465 c19 -19 36 -35 39 -35 3 0 -10 16 -29 35 -19 19 -36 35
-39 35 -3 0 10 -16 29 -35z"/>
<path d="M5140 1417 c-19 -34 -49 -87 -67 -118 -17 -32 -41 -67 -52 -78 -12
-12 -21 -26 -21 -32 0 -5 -6 -7 -12 -3 -7 4 -10 4 -6 0 4 -5 -5 -19 -19 -32
-14 -13 -21 -24 -16 -24 5 0 26 18 47 40 20 22 35 40 32 40 -3 0 5 11 17 24
12 13 31 41 42 63 10 21 25 45 31 53 17 20 67 121 62 125 -2 2 -19 -24 -38
-58z"/>
<path d="M2704 1445 c-22 -17 -60 -20 -69 -5 -8 14 -35 -6 -35 -25 0 -8 -11
-26 -24 -42 -22 -26 -53 -110 -44 -119 4 -3 55 44 103 97 17 18 24 29 18 25
-7 -4 -13 -5 -13 -2 0 11 76 43 133 56 32 7 60 17 63 22 9 15 -111 9 -132 -7z"/>
<path d="M3257 1425 c-31 -22 -32 -68 -3 -117 23 -40 68 -75 89 -70 8 2 66
-34 77 -48 3 -3 75 -55 160 -115 197 -137 191 -133 256 -205 39 -44 54 -69 54
-90 0 -24 10 -36 53 -68 84 -61 108 -74 123 -68 8 3 13 2 10 -3 -6 -10 61 -21
70 -12 8 9 28 8 34 -1 8 -11 80 11 80 24 0 6 3 9 6 5 4 -3 24 3 45 13 21 11
46 20 57 20 10 0 22 4 27 9 6 5 24 11 40 13 41 4 55 20 101 115 36 78 54 100
54 71 0 -7 6 -2 14 12 7 14 9 29 5 34 -11 12 -59 -20 -59 -39 0 -41 -89 -105
-146 -105 -31 1 -36 3 -21 11 14 9 26 69 13 69 -3 0 -18 -14 -35 -30 -25 -26
-34 -29 -51 -20 -17 9 -19 20 -18 78 1 72 -17 124 -49 136 -16 6 -16 6 -1 -11
27 -30 39 -73 32 -122 l-6 -46 -86 1 c-95 2 -151 19 -183 56 -25 29 -20 104
10 174 18 39 19 50 9 61 -11 10 -20 3 -47 -37 -27 -39 -34 -61 -34 -95 0 -36
-4 -45 -17 -45 -18 0 -55 26 -105 74 -16 16 -64 54 -105 84 -41 31 -95 75
-121 99 -27 25 -76 55 -120 74 -41 17 -88 41 -104 54 -17 12 -39 24 -50 26
-11 2 -24 14 -30 26 -9 17 -13 19 -28 8z"/>
<path d="M4497 1185 c7 -49 13 -58 13 -19 0 16 -5 36 -10 44 -6 10 -7 2 -3
-25z"/>
<path d="M3210 1164 c0 -11 62 -95 67 -90 7 6 -49 96 -59 96 -5 0 -8 -3 -8 -6z"/>
<path d="M5035 1130 c-10 -11 -14 -20 -9 -20 5 0 15 9 22 20 7 11 11 20 9 20
-2 0 -12 -9 -22 -20z"/>
<path d="M2400 1049 c-16 -27 -30 -53 -30 -58 0 -5 -12 -24 -27 -42 -27 -32
-18 -32 19 0 10 9 22 16 26 16 4 0 37 15 74 32 55 27 65 36 61 53 -3 11 -13
20 -22 20 -9 0 -28 6 -43 14 -27 14 -28 14 -58 -35z m30 -53 c-19 -13 -37 -22
-40 -19 -7 7 43 43 60 43 8 0 -1 -11 -20 -24z"/>
<path d="M3278 888 c-105 -83 -99 -106 7 -26 6 4 26 21 45 38 54 47 11 37 -52
-12z"/>
<path d="M4561 623 c0 -12 -5 -25 -11 -28 -5 -3 -10 -11 -10 -18 0 -7 6 -5 16
5 9 9 14 26 11 39 -4 23 -4 23 -6 2z"/>
<path d="M3357 473 c-4 -3 -7 -32 -7 -63 0 -50 -3 -59 -31 -86 -53 -49 -89
-113 -89 -158 l0 -41 35 64 c19 35 52 79 75 98 39 34 40 36 40 101 0 65 -9 99
-23 85z"/>
<path d="M3780 340 c0 -5 5 -10 10 -10 6 0 10 5 10 10 0 6 -4 10 -10 10 -5 0
-10 -4 -10 -10z"/>
<path d="M3826 179 c-2 -8 -14 -45 -26 -82 -12 -38 -20 -70 -18 -72 8 -8 58
80 64 113 7 34 -11 71 -20 41z"/>
</g>
</svg>
